# xmcd
#
# Track frame offsets:
#	150
#	37791
#	44536
#	70787
#	91019
#	118886
#	147644
#	184204
#	236980
#	287752
#
# Disc length: 3953 seconds
#
# Revision: 0
# Processed by: cddbd v1.5.1PL0 Copyright (c) Steve Scherf et al.
# Submitted via: EasyCDDAExtractor 7.1.2.1
#
DISCID=940f6f0a
DTITLE=Whitesnake - Shadows Of Sweden - CD 2
DYEAR=1997
DGENRE=Hard Rock
TTITLE0=Only My Soul - Oi
TTITLE1=Mistreated
TTITLE2=Is This Love
TTITLE3=Restless Heart
TTITLE4=Don't Break My Heart Again
TTITLE5=Fool For You Loving
TTITLE6=Here I Go Again
TTITLE7=Ain't No Love In The Heart Of The City
TTITLE8=Still Of The Night - Soldier Of Fortune
TTITLE9=We Wish You Well
EXTD=
EXTT0=
EXTT1=
EXTT2=
EXTT3=
EXTT4=
EXTT5=
EXTT6=
EXTT7=
EXTT8=
EXTT9=
PLAYORDER=
